ModelForces
version=1
nRows=4
nColumns=155
inDegrees=no

This file contains the forces exerted on a model during a simulation.

A force is a generalized force, meaning that it can be either a force (N) or a torque (Nm).

Units are S.I. units (second, meters, Newtons, ...)
Angles are in degrees.

endheader
time	glut_med1_r	glut_med2_r	glut_med3_r	glut_min1_r	glut_min2_r	glut_min3_r	semimem_r	semiten_r	bifemlh_r	bifemsh_r	sar_r	add_long_r	add_brev_r	add_mag1_r	add_mag2_r	add_mag3_r	tfl_r	pect_r	grac_r	glut_max1_r	glut_max2_r	glut_max3_r	iliacus_r	psoas_r	quad_fem_r	gem_r	peri_r	rect_fem_r	vas_med_r	vas_int_r	vas_lat_r	med_gas_r	lat_gas_r	soleus_r	tib_post_r	flex_dig_r	flex_hal_r	tib_ant_r	per_brev_r	per_long_r	per_tert_r	ext_dig_r	ext_hal_r	glut_med1_l	glut_med2_l	glut_med3_l	glut_min1_l	glut_min2_l	glut_min3_l	semimem_l	semiten_l	bifemlh_l	bifemsh_l	sar_l	add_long_l	add_brev_l	add_mag1_l	add_mag2_l	add_mag3_l	tfl_l	pect_l	grac_l	glut_max1_l	glut_max2_l	glut_max3_l	iliacus_l	psoas_l	quad_fem_l	gem_l	peri_l	rect_fem_l	vas_med_l	vas_int_l	vas_lat_l	med_gas_l	lat_gas_l	soleus_l	tib_post_l	flex_dig_l	flex_hal_l	tib_ant_l	per_brev_l	per_long_l	per_tert_l	ext_dig_l	ext_hal_l	ercspn_r	ercspn_l	intobl_r	intobl_l	extobl_r	extobl_l	femur_lat_meniscii_r.femur_lat_r.force.X	femur_lat_meniscii_r.femur_lat_r.force.Y	femur_lat_meniscii_r.femur_lat_r.force.Z	femur_lat_meniscii_r.femur_lat_r.torque.X	femur_lat_meniscii_r.femur_lat_r.torque.Y	femur_lat_meniscii_r.femur_lat_r.torque.Z	femur_lat_meniscii_r.meniscus_lat_r.force.X	femur_lat_meniscii_r.meniscus_lat_r.force.Y	femur_lat_meniscii_r.meniscus_lat_r.force.Z	femur_lat_meniscii_r.meniscus_lat_r.torque.X	femur_lat_meniscii_r.meniscus_lat_r.torque.Y	femur_lat_meniscii_r.meniscus_lat_r.torque.Z	femur_med_meniscii_r.femur_med_r.force.X	femur_med_meniscii_r.femur_med_r.force.Y	femur_med_meniscii_r.femur_med_r.force.Z	femur_med_meniscii_r.femur_med_r.torque.X	femur_med_meniscii_r.femur_med_r.torque.Y	femur_med_meniscii_r.femur_med_r.torque.Z	femur_med_meniscii_r.meniscus_med_r.force.X	femur_med_meniscii_r.meniscus_med_r.force.Y	femur_med_meniscii_r.meniscus_med_r.force.Z	femur_med_meniscii_r.meniscus_med_r.torque.X	femur_med_meniscii_r.meniscus_med_r.torque.Y	femur_med_meniscii_r.meniscus_med_r.torque.Z	femur_med_tibia_r.tibia_upper_r.force.X	femur_med_tibia_r.tibia_upper_r.force.Y	femur_med_tibia_r.tibia_upper_r.force.Z	femur_med_tibia_r.tibia_upper_r.torque.X	femur_med_tibia_r.tibia_upper_r.torque.Y	femur_med_tibia_r.tibia_upper_r.torque.Z	femur_med_tibia_r.femur_med_r.force.X	femur_med_tibia_r.femur_med_r.force.Y	femur_med_tibia_r.femur_med_r.force.Z	femur_med_tibia_r.femur_med_r.torque.X	femur_med_tibia_r.femur_med_r.torque.Y	femur_med_tibia_r.femur_med_r.torque.Z	femur_lat_tibia_r.tibia_upper_r.force.X	femur_lat_tibia_r.tibia_upper_r.force.Y	femur_lat_tibia_r.tibia_upper_r.force.Z	femur_lat_tibia_r.tibia_upper_r.torque.X	femur_lat_tibia_r.tibia_upper_r.torque.Y	femur_lat_tibia_r.tibia_upper_r.torque.Z	femur_lat_tibia_r.femur_lat_r.force.X	femur_lat_tibia_r.femur_lat_r.force.Y	femur_lat_tibia_r.femur_lat_r.force.Z	femur_lat_tibia_r.femur_lat_r.torque.X	femur_lat_tibia_r.femur_lat_r.torque.Y	femur_lat_tibia_r.femur_lat_r.torque.Z	aACL_R	pACL_R	aPCL_R	pPCL_R	aMCL_R	mMCL_R	pMCL_R	aLCL_R	mLCL_R	pLCL_R	aPCL_L	pPCL_L	aMCL_L	aLCL_L
      0.16496539	     11.41023847	      8.33056354	      8.95972982	      3.84662200	      4.47164045	      4.83839896	      0.00000000	    166.08226600	    140.44574491	    297.63832869	    130.22482904	      8.29085268	      5.97036294	      3.57204497	      3.63253421	      6.12214564	      4.94391255	      3.24682197	     99.69858272	      5.37888339	      8.18262138	      6.14894159	     27.51937763	     18.49749628	      5.28931536	      3.65140963	      6.23738823	     54.29764407	     31.10933439	     33.28136827	     44.96980336	      0.00000000	      0.00000000	      0.00000000	      0.00000000	      0.00000000	      0.00000000	     33.99909197	      2.28802068	      2.88502158	     54.97037149	     42.64801007	     10.89849270	     11.41023847	      8.33056354	      8.95972982	      3.84662200	      4.47164045	      4.83839896	      0.00000000	      6.17262481	     12.18654680	     10.52767727	      2.19481125	      8.29085268	      5.97036294	      3.57204497	      3.63253421	      6.12214564	      5.41750955	      3.24682197	      2.26567913	      5.37888339	      8.18262138	      6.14894159	     27.51937763	     18.49749628	      5.28931536	      3.65140963	      6.23738823	     16.97328632	      0.00000000	      0.00000000	      0.00000000	     21.15956178	      9.99520754	     50.70161416	     50.92704894	      5.43847265	      4.86612029	     13.20945541	      7.06522141	     18.15363794	      2.85999644	      8.81042705	      2.76809792	     36.20691494	     36.20691494	     13.45128774	     13.45128774	     30.81736944	     30.81736944	    109.31623259	    193.74527785	     23.93111070	    -14.33701816	      2.66214215	     42.75134075	   -109.31623259	   -193.74527785	    -23.93111070	      5.38657579	     -3.32242256	      3.47947849	     25.77513986	     22.65988416	     11.93398241	     -4.29492309	     -0.58213460	     10.33687933	    -25.77513986	    -22.65988416	    -11.93398241	     -0.28105202	      0.29660579	      0.08851299	   -754.46181960	   -686.00218850	    222.46192343	    -15.84676481	     17.04788915	     -1.14656562	    754.46181960	    686.00218850	   -222.46192343	    102.83472059	    -13.60490321	    306.77633920	      0.00000000	      0.00000000	      0.00000000	      0.00000000	      0.00000000	      0.00000000	      0.00000000	      0.00000000	      0.00000000	      0.00000000	      0.00000000	      0.00000000	     -2.24924958	      0.00000000	    581.77891856	    376.40312043	      0.00000000	      0.00000000	      0.00000000	      0.00000000	      0.00000000	      0.00000000	      0.00000000	      0.00000000	      0.00000001	      0.00000000
      0.16522518	     11.39773913	      8.32144613	      8.94980641	      3.84258449	      4.46722270	      4.83275661	      0.00000000	    166.10259023	    140.51201116	    297.71575241	    130.20418509	      8.28167439	      5.96415462	      3.62614465	      3.62848633	      6.11481092	      4.93471069	      3.24338969	     99.67488982	      5.37297308	      8.17361007	      6.14206488	     27.50257675	     18.47833653	      5.28364275	      3.64863857	      6.23457902	     54.52453183	     31.11099489	     33.27877013	     44.96148701	      0.00000000	      0.00000000	      0.00000000	      0.00000000	      0.00000000	      0.00000000	     34.04074523	      2.27650798	      2.88132910	     30.39570792	     42.83272899	     10.94408638	     11.39773913	      8.32144613	      8.94980641	      3.84258449	      4.46722270	      4.83275661	      0.00000000	      6.16544118	     12.17261295	     10.51637371	      2.19251828	      8.28167439	      5.96415462	      3.62614465	      3.62848633	      6.11481092	      5.41298992	      3.24338969	      2.26327052	      5.37297308	      8.17361007	      6.14206488	     27.50257675	     18.47833653	      5.28364275	      3.64863857	      6.23457902	     16.95209874	      0.00000000	      0.00000000	      0.00000000	     21.15311923	      9.99125926	     50.65053869	     50.90013883	      5.43258201	      4.86074648	     13.19387436	      7.05639912	     18.13712290	      2.85704488	      8.79928366	      2.76478854	     36.16882603	     36.16882603	     13.43599939	     13.43599939	     30.80350931	     30.80350931	    109.59647263	    194.19783269	     23.93162934	    -14.34843649	      2.66837518	     42.85163269	   -109.59647263	   -194.19783269	    -23.93162934	      5.39819406	     -3.33060672	      3.51039781	     25.80658400	     22.41491256	     11.80189362	     -4.24679178	     -0.58205048	     10.34927879	    -25.80658400	    -22.41491256	    -11.80189362	     -0.27891283	      0.29854741	      0.08529015	   -756.81360150	   -685.68411126	    223.33636789	    -15.84021437	     17.11145533	     -1.11127282	    756.81360150	    685.68411126	   -223.33636789	    103.17652340	    -13.64580115	    307.70554242	      0.00000000	      0.00000000	      0.00000000	      0.00000000	      0.00000000	      0.00000000	      0.00000000	      0.00000000	      0.00000000	      0.00000000	      0.00000000	      0.00000000	     -2.19808632	      0.00000000	    584.35746146	    377.60848458	      0.00000000	      0.00000000	      0.00000000	      0.00000000	      0.00000000	      0.00000000	      0.00000000	      0.00000000	      0.00000001	      0.00000000
      0.16541657	     11.38854712	      8.31474933	      8.94251766	      3.83961884	      4.46397782	      4.82861210	      0.00000000	    166.11573111	    140.56236399	    297.77224247	    130.18867786	      8.27493293	      5.95959440	      3.66247938	      3.62551316	      6.10942349	      4.92784012	      3.24086860	     99.65687407	      5.36863199	      8.16699131	      6.13701398	     27.49023694	     18.46426430	      5.27947612	      3.64660336	      6.23249244	     54.69069885	     31.10527678	     33.27323553	     44.95281188	      0.00000000	      0.00000000	      0.00000000	      0.00000000	      0.00000000	      0.00000000	     34.07096967	      2.26828075	      2.87878982	     23.06375612	     42.95846404	     10.97374809	     11.38854712	      8.31474933	      8.94251766	      3.83961884	      4.46397782	      4.82861210	      0.00000000	      6.16016485	     12.16236595	     10.50807109	      2.19083402	      8.27493293	      5.95959440	      3.66247938	      3.62551316	      6.10942349	      5.40967006	      3.24086860	      2.26150135	      5.36863199	      8.16699131	      6.13701398	     27.49023694	     18.46426430	      5.27947612	      3.64660336	      6.23249244	     16.93653373	      0.00000000	      0.00000000	      0.00000000	     21.14832065	      9.98832780	     50.61292422	     50.88035755	      5.42822853	      4.85676830	     13.18242271	      7.04991585	     18.12497609	      2.85487704	      8.79114847	      2.76237808	     36.14084872	     36.14084872	     13.42477017	     13.42477017	     30.79332952	     30.79332952	    111.20624587	    192.43052810	     22.96665136	    -13.89721469	      2.70566317	     43.52908729	   -111.20624587	   -192.43052810	    -22.96665136	      5.31693009	     -3.35147587	      3.42835986	     25.82844676	     22.30129766	     11.73377515	     -4.22221051	     -0.58189672	     10.35728474	    -25.82844676	    -22.30129766	    -11.73377515	     -0.27763190	      0.29929077	      0.08491463	   -758.84289198	   -684.98833086	    223.62825634	    -15.81907154	     17.15311363	     -1.10701932	    758.84289198	    684.98833086	   -223.62825634	    103.27525788	    -13.67850512	    308.51706123	      0.00000000	      0.00000000	      0.00000000	      0.00000000	      0.00000000	      0.00000000	      0.00000000	      0.00000000	      0.00000000	      0.00000000	      0.00000000	      0.00000000	     -2.20470855	      0.00000000	    586.27170885	    378.55392754	      0.00000000	      0.00000000	      0.00000000	      0.00000000	      0.00000000	      0.00000000	      0.00000000	      0.00000000	      0.00000001	      0.00000000
      0.16567758	     11.37603482	      8.30564445	      8.93260804	      3.83558665	      4.45956612	      4.82297707	      0.00000000	    166.12918057	    140.63322542	    297.84994239	    130.16490682	      8.26576740	      5.95339414	      3.70767048	      3.62147088	      6.10209878	      4.91833126	      3.23744089	     99.62992852	      5.36272999	      8.15799265	      6.13014698	     27.47346062	     18.44513285	      5.27381117	      3.64383651	      6.22962399	     54.91817949	     31.09612009	     33.26507405	     44.94087587	      0.00000000	      0.00000000	      0.00000000	      0.00000000	      0.00000000	      0.00000000	     34.11239796	      2.25703534	      2.87524067	     24.17775094	     43.12870904	     11.01380643	     11.37603482	      8.30564445	      8.93260804	      3.83558665	      4.45956612	      4.82297707	      0.00000000	      6.15299132	     12.14841739	     10.49678284	      2.18854405	      8.26576740	      5.95339414	      3.70767048	      3.62147088	      6.10209878	      5.40515620	      3.23744089	      2.25909597	      5.36272999	      8.15799265	      6.13014698	     27.47346062	     18.44513285	      5.27381117	      3.64383651	      6.22962399	     16.91536822	      0.00000000	      0.00000000	      0.00000000	     21.14170586	      9.98429939	     50.56164965	     50.85344203	      5.42227278	      4.85131684	     13.16684341	      7.04109689	     18.10843922	      2.85192979	      8.78015575	      2.75912850	     36.10281005	     36.10281005	     13.40950327	     13.40950327	     30.77948998	     30.77948998	    111.81453805	    192.41192298	     22.69724033	    -13.78499707	      2.71477708	     43.77128801	   -111.81453805	   -192.41192298	    -22.69724033	      5.30853650	     -3.35740496	      3.43448562	     25.99442458	     22.23834619	     11.60493443	     -4.17155082	     -0.58478919	     10.42224660	    -25.99442458	    -22.23834619	    -11.60493443	     -0.27898715	      0.30395372	      0.08487783	   -761.46267049	   -684.63085076	    223.35028443	    -15.77842008	     17.18749943	     -1.07870342	    761.46267049	    684.63085076	   -223.35028443	    103.13777965	    -13.71447907	    309.55660974	      0.00000000	      0.00000000	      0.00000000	      0.00000000	      0.00000000	      0.00000000	      0.00000000	      0.00000000	      0.00000000	      0.00000000	      0.00000000	      0.00000000	     -2.23053769	      0.00000000	    588.88103273	    379.85802789	      0.00000000	      0.00000000	      0.00000000	      0.00000000	      0.00000000	      0.00000000	      0.00000000	      0.00000000	      0.00000001	      0.00000000
